<?xml version="1.0" encoding="utf-8"?>
<!-- Generator: Adobe Illustrator 19.0.0, SVG Export Plug-In . SVG Version: 6.00 Build 0)  -->
<svg version="1.1" id="Layer_2" xmlns="http://www.w3.org/2000/svg" xmlns:xlink="http://www.w3.org/1999/xlink" x="0px" y="0px"
	 viewBox="0 0 86.4 86.4" style="enable-background:new 0 0 86.4 86.4;" xml:space="preserve">
<style type="text/css">
	.st0{fill:#009DFF;}
	.st1{fill:#FFFFFF;}
</style>
<g>
	<ellipse class="st0" cx="43.2" cy="43.2" rx="33.8" ry="33.8"/>
	<path class="st1" d="M70.5,40.3c0,0-20.8-13.2-21.6-13.8c-0.8-0.5-5.2-2.5-9-0.1s-10.8,6.4-9.2,9.3c1.6,2.5,9.3,0,10.7-2.4
		c0.3-0.7,1.9-1.6,3.3-0.3c1.4,1.3,13.9,15.4,13.9,15.4L70.5,40.3z"/>
	<path class="st1" d="M54.9,49.3c-1.3,1.3-2.8-0.3-6.2-2.7c3.1,2.4,4,4.6,2.8,5.9c-1.2,1.2-2.8,0.1-5.9-2.1c2,1.9,3,3.8,1.6,5.2
		c-1.7,1.7-4.2-1.8-6.2-3.1c1.8,2,3.8,3.5,2.5,5.1c-1.3,1.6-5.2-0.9-7.4-2.6C34,53.3,23,45.1,23,45.1v6c0.6,0.3,1,0.9,1,1.7
		s-0.4,1.4-1,1.7c0.1,2.4,0.5,4.5,1.6,6.3h-4.1c0.2-0.2,0.5-3.5,0.5-6.4c-0.5-0.3-0.8-0.9-0.8-1.5c0-0.6,0.3-1.2,0.9-1.5v-7.4
		l-5.2-3.7l17.3-11.4c-4.5,3.6-6.3,8-1.8,9.2c4.5,1.2,10-2.1,10.9-3.1c0.9-1,2.3-0.3,2.8,0.2c0.5,0.6,4.6,5.2,7.6,8.1
		C55.8,46.2,56.3,47.9,54.9,49.3z"/>
</g>
</svg>
